<?xml version="1.0" encoding="UTF-8"?>
<svg id="Layer_1" data-name="Layer 1" xmlns="http://www.w3.org/2000/svg" viewBox="0 0 1243.59 465.77">
  <defs>
    <style>
      .cls-1 {
        fill: #FFFFFF;
        stroke-width: 0px;
      }
    </style>
  </defs>
  <path class="cls-1" d="m454.75.01c39.22-.01,78.44-.01,117.66-.01.01,21.8,0,43.61.01,65.41-5.42.03-10.84-.01-16.26.02.04,20.57-.05,41.14.05,61.71-2.71,2.62-5.62,5.01-8.33,7.63,9.69,9.03,19.98,17.38,29.72,26.36.19,29.96.31,59.91.59,89.86,3.77.02,7.53.02,11.31,0-.01-3-.01-5.99.01-8.98,31.47,0,62.94,0,94.41.01-.01,27.83.01,55.67-.02,83.5-31.46-.02-62.93.01-94.4-.01,0-2.89-.01-5.77-.01-8.65-58.17-.01-116.35-.02-174.52,0-4.4.25-8.74-.63-13.12-.56-.02-1.68-.03-3.34-.04-5.01-7.95-7.06-15.88-14.14-23.81-21.23-.01-53.12.02-106.23-.02-159.34,12.37-11.94,25.35-23.21,38.13-34.69,17.32-.05,34.64,0,51.97-.02-.01-10.2.05-20.39-.04-30.58-4.43,0-8.86.01-13.28-.01-.02-21.8-.01-43.6-.01-65.4Zm12.49,12.52c.02,13.46.01,26.92.01,40.38,4.44.02,8.89-.01,13.34.03-.02,18.52,0,37.04-.01,55.56-19.86.01-39.73,0-59.59,0-10.24,9.11-20.52,18.17-30.48,27.57-.05,49.41.05,98.82-.05,148.24,7.39,6.75,14.93,13.35,22.4,20.03,63.04-.01,126.08.01,189.12-.01.01,2.89.02,5.77.03,8.67,23.13,0,46.26.01,69.4,0,.01-19.5.01-39,0-58.49-23.14-.01-46.27-.01-69.41,0,0,3,0,6-.02,9-12.1-.08-24.2.14-36.29-.11-.1-32.2-.44-64.4-.52-96.6-11.78-10.43-23.82-20.57-35.06-31.59,4.15-4.89,8.68-9.43,13.56-13.59-.01-22.9-.01-45.79,0-68.69,5.41-.02,10.83,0,16.25-.02-.01-13.46,0-26.93-.01-40.4-30.89,0-61.78-.03-92.67.02Z"/>
  <path class="cls-1" d="m792.67,4.01c40.19-.01,80.38-.01,120.58,0v64.9c-5.62.02-11.23-.01-16.84.03.01,19,0,38.01,0,57.02,7.83.08,15.67.03,23.5.03,0-2.44,0-4.88.02-7.31,27.02-.02,54.04-.01,81.06-.01.01,26.95.03,53.89-.01,80.84-27.01-.02-54.03,0-81.05-.01-.02-2.55-.02-5.11-.02-7.66-7.83,0-15.66-.02-23.49.01,0,23.83-.03,47.66.01,71.49,5.8-.01,11.59-.01,17.39-.01.02,20.95.01,41.89.01,62.83-40.39.02-80.77.02-121.15,0-.03-20.93-.01-41.87-.02-62.81,4.86-.04,9.72,0,14.58-.02.02-23.83.01-47.66,0-71.48-5.72-.02-11.43-.02-17.15,0-.01,2.55-.01,5.1-.05,7.66-27.01-.01-54.02-.01-81.03,0-.03-26.95-.01-53.89,0-80.84,27.02,0,54.04-.01,81.06.01,0,2.43.01,4.87.02,7.32,5.71.01,11.43.01,17.15-.01.02-19.02.01-38.04.01-57.06-4.87-.02-9.72,0-14.58-.02,0-21.63-.01-43.27,0-64.9Zm12.5,12.51c0,13.29,0,26.59-.01,39.89,4.86.02,9.72,0,14.58.01.02,27.36.01,54.72,0,82.09-14.05-.02-28.11.02-42.16-.02v-7.31c-18.69-.01-37.39-.03-56.09.01.03,18.6,0,37.2.02,55.8,18.69.01,37.38.02,56.07,0v-7.64c14.05-.04,28.11,0,42.16-.02.02,32.17,0,64.34.01,96.5-4.86.02-9.72-.01-14.58.02-.01,12.6-.01,25.21.01,37.82h96.14c.02-12.61.02-25.22.01-37.82-5.81-.03-11.61,0-17.41-.02,0-32.16-.02-64.33.01-96.49,16.16,0,32.33-.03,48.49.01-.01,2.54-.01,5.09,0,7.64,18.69.03,37.38.01,56.07.01.01-18.61.02-37.22-.01-55.83-18.69.01-37.37-.01-56.06.01-.01,2.43-.01,4.87,0,7.31-16.16.03-32.33.01-48.49.01-.02-27.36-.03-54.72,0-82.08,5.56.03,11.13-.08,16.69.08.27-13.33.1-26.68.09-40.01-31.85.05-63.7,0-95.54.03Z"/>
  <path class="cls-1" d="m1040.67,33.59c10.56-9.68,19.97-20.78,31.32-29.5,42.72-.21,85.46-.01,128.19-.1,14.64,12.89,28.81,26.31,43.41,39.25-.02,17.77,0,35.53-.01,53.3-1.45,1.3-2.9,2.6-4.32,3.91-16.08.12-32.16.02-48.24.05-8.73-.07-17.48.31-26.18-.58-.02-9.5-.01-18.99,0-28.48-16.37-.1-32.73-.29-49.09-.38.05,31.55-.11,63.1.08,94.65,23.69-.1,47.37-.02,71.05-.03,12.71,11.36,25.43,22.7,38.12,34.07,0,20.67-.01,41.34.01,62,5.41,0,10.82-.01,16.23.01.01,21.8.01,43.6,0,65.4-39.21.02-78.43.01-117.65.01-.01-21.81-.01-43.61,0-65.41,4.44-.02,8.88-.01,13.32-.01.01-10.19.01-20.39,0-30.58-21.35.01-42.69-.02-64.03.01-12.58-11.14-25.09-22.35-37.61-33.55-.16-54.68-.4-109.36-.6-164.04,1.99,0,3.99-.01,6,0Zm6.59,10.74c.07,49.21.39,98.43.49,147.65,9.92,8.81,19.74,17.75,29.74,26.47,23.93.52,47.95.06,71.92.22.01,18.53.01,37.05,0,55.58-4.45.01-8.88,0-13.32,0-.02,13.47-.02,26.95,0,40.42,30.89-.01,61.77.01,92.66,0,0-13.48,0-26.95-.01-40.41-5.41-.01-10.82-.01-16.23-.01-.03-16.1,0-32.21-.01-48.31-.22-6.9.41-13.91-.29-20.73-9.98-9.12-20.13-18.06-30.21-27.05-26.25.02-52.5.02-78.75,0,0-39.91.01-79.83,0-119.74,24.69.23,49.38.42,74.07.63.03,9.64,0,19.29.02,28.94,17.91.02,35.82.01,53.74.01.01-13.05,0-26.09,0-39.13-12.05-10.68-23.68-21.83-35.82-32.42-39.55.09-79.1.08-118.65.01-10.41,8.62-18.99,19.2-29.35,27.87Z"/>
  <path class="cls-1" d="m1.49,49.09C4.4,26.68,26.02,7.62,48.94,9.59c78.67.19,157.35.02,236.02.08,6.11.06,12.34-.48,18.31,1.16,19.34,4.81,35.76,21.96,37.66,42.1.19,62.01.21,124.02.07,186.02-.1,6.02.49,12.15-.98,18.06-3.48,15.05-14.14,28.18-28.01,34.92-3.14,1.51-6.45,3.05-10.02,2.86-26.36.14-52.73-.03-79.09.08-2.31-.3-4.54,1.62-4.35,3.99-.2,11.68.13,23.38-.13,35.06-.16,5.84-5.5,10.94-11.33,10.89-27.7.07-55.41-.01-83.11.04-2.8-.03-5.63.2-8.4-.27-5.22-1.21-9.37-6.22-9.31-11.63-.06-31,.02-62.01-.04-93.02-.43-12.01,5.41-23.61,13.98-31.77,7.76-7.18,17.95-12.87,28.81-12.33,19.38-.06,38.77-.1,58.16.08-.95-24.07.62-48.18-.79-72.23-2.44-.59-4.9-1.13-7.42-1.11-23.99.03-47.98.03-71.98,0-2.92.05-5.94-.25-8.78.6-1.58.47-2.16,2.17-2.1,3.67-.42,10.73.43,21.5-.37,32.22-.59,8.28-7.12,15.79-15.27,17.43-3.45.56-6.96.32-10.44.36-25.02-.29-50.04.1-75.06-.04-7.37.07-13.86-5.82-14.97-13.03v-1.47c.54-4.13,1.56-8.21,1.44-12.4-.13-33.61-.2-67.22.05-100.82Zm11.37,8.8c.14,31.67,0,63.34.08,95.02.08,3.68-.61,7.3-1.05,10.95,1.99.64,3.99,1.4,6.11,1.4,25.99-.02,51.99.01,77.98-.01,4.58.34,8.28-3.99,8.39-8.34.35-10.93-.07-21.87.2-32.8.39-7.23,7.32-12.97,14.38-13.01,28.01-.04,56.02,0,84.03-.02,7.73-.4,15.46,6.02,15.5,13.95.05,20.95.02,41.9,0,62.85.03,4.74,1.81,10.04-1.26,14.25-2.75,4.48-8.33,5.68-13.23,5.22-19.61.06-39.23-.21-58.84.18-15.41,3.28-28.49,18.24-27.34,34.37-.01,30.45-.23,60.9.12,91.35,29.66.05,59.32.24,88.97-.1.03-11.75-.02-23.5.02-35.25-.17-7.5,6.45-14.57,14.02-14.55,24.7-.22,49.4.17,74.1-.1,2.95-.14,5.99.3,8.87-.5,14.48-5.63,25.43-20.21,25.61-35.92-.14-64.3.12-128.61-.14-192.91-2.13-17.26-18-31.72-35.29-32.66-84.34.07-168.69-.17-253.03.13-16.35,3.31-29.99,19.46-28.21,36.5Z"/>
  <path class="cls-1" d="m282.3,55.34c6.9-.56,13.83-.03,20.75-.06,5.97.07,10.3,6.06,10.33,11.7.32,5.58-4.07,10.99-9.64,11.7-5.55.65-11.14-.11-16.71.24-4.77.28-10.34-.23-13.38-4.43-5.77-6.83-.86-19.66,8.65-19.15Z"/>
  <path class="cls-1" d="m278.46,98.57c6.34-2.02,13.05-.63,19.57-1.07,5.29-.45,11.57,1.26,14.01,6.43,3.65,6.41-.2,15.74-7.48,17.35-5.16.63-10.38.16-15.56.31-4.9.06-10.65.63-14.29-3.4-6-5.57-3.94-16.71,3.75-19.62Z"/>
  <path class="cls-1" d="m280.46,140.56c4.81-.8,9.7-.06,14.55-.32,4.94-.09,10.67-.56,14.59,3.08,5.58,4.86,4.73,14.76-1.26,18.92-2.4,1.81-5.52,1.85-8.39,2.02-5.66.2-11.32-.02-16.98-.01-6.51.2-12.2-5.98-11.8-12.4.06-5.27,4.09-10.27,9.29-11.29Z"/>
  <path class="cls-1" d="m446.58,149.35c19.88.03,39.76-.14,59.64.08-.14,38.03.03,76.05-.09,114.08-19.85-.02-39.7.02-59.55-.02.01-38.05.01-76.09,0-114.14Zm12.51,12.49c-.01,29.72-.01,59.44,0,89.15,11.52.01,23.05.03,34.58,0,0-29.72,0-59.43-.01-89.14-11.52-.02-23.05-.02-34.57-.01Z"/>
  <path class="cls-1" d="m279.38,183.51c4.76-1.24,9.71-.28,14.55-.51,4.92.06,10.49-1,14.73,2.19,6.3,4.41,6.24,15.04-.06,19.42-4.81,3.43-11.03,2.15-16.54,2.39-5.89-.06-12.94,1.09-17.48-3.61-6.08-5.78-3.52-17.72,4.8-19.88Z"/>
  <path class="cls-1" d="m278.36,226.46c7.43-1.75,15.14-.35,22.69-.83,5-.48,9.81,2.93,11.57,7.54,2.64,6.5-1.52,14.96-8.63,16.03-5.32.34-10.66.03-15.99.14-4.55.07-9.88.59-13.23-3.17-6.1-5.53-4.08-16.72,3.59-19.71Z"/>
  <path class="cls-1" d="m148.57,366.73c7.05-1.28,14.24-.66,21.36-.8,15.1-.33,30.1,6.82,39.43,18.67,9.15,11.51,12.92,27.12,9.81,41.52-4.18,21.13-23.62,38.38-45.24,39.37-7.98.22-16.02.69-23.96-.47-13.61-1.9-26.16-9.99-33.71-21.44-9.23-13.6-10.93-31.89-4.6-47.02,6.23-15.33,20.61-26.96,36.91-29.83Zm.81,11.68c-17.35,3.66-30.75,20.72-29.91,38.49.27,18.88,16.59,36.13,35.53,37.02,9.57.3,19.55,1.19,28.7-2.3,16.5-6,27.56-24.31,24.45-41.72-2.54-17.49-18.45-31.85-36.15-32.38-7.54.12-15.18-.66-22.62.89Z"/>
  <path class="cls-1" d="m259.43,388.33c11.28-19.26,38.78-25.89,57.91-14.67,0-1.42,0-2.84,0-4.25,7.66.02,15.32-.01,22.98.02.01,12.16.01,24.32,0,36.48-7.63-.06-15.26.17-22.88-.12-2.07-4.13-4.72-8.35-9.05-10.39-6.84-3.52-16.77-1.87-20.63,5.23-3.24,6.67-3.2,15.24.99,21.5,3.51,5.19,10.66,6.97,16.45,5.02,6.24-1.99,10.91-7.09,14.03-12.67,8.15,3.85,16.29,7.73,24.51,11.42-4.05,10.24-11.7,19.38-21.98,23.72-11.2,4.68-23.84,4.43-35.55,2.04-13.97-3.17-26.67-13.68-30.44-27.78-2.99-11.73-2.53-24.89,3.65-35.55Zm9.99-2.97c-11.2,11.63-12.46,30.84-4.32,44.52,4.05,6.9,10.86,11.85,18.3,14.55,8.84,3.19,18.5,3.42,27.72,2.06,10.33-1.58,19.35-8.5,24.44-17.51-4.61-2.24-9.28-4.37-13.9-6.58-4.04,5.05-9.34,9.46-15.78,10.9-5.16,1.01-10.83.86-15.51-1.78-5.48-2.87-9.35-8.43-10.24-14.55-1.66-8.66-.32-18.99,6.87-24.91,10.64-8.57,28.42-4.37,34.43,7.82,4.29.23,8.59.09,12.9.11.01-8.18,0-16.37,0-24.55-3.66-.03-7.33-.03-10.99-.02-.01,3.43-.01,6.85-.01,10.28-4.79-3.7-9.61-7.59-15.42-9.54-13.2-4.72-28.68-.63-38.49,9.2Z"/>
  <path class="cls-1" d="m383.51,368.71c11.35-1.56,23.45.2,33.21,6.44,8.54,5.25,15.02,13.91,17.21,23.75,2.29,10.36,1.79,21.61-2.7,31.33-4.48,9.7-13.34,16.99-23.36,20.42-11.01,3.8-23.31,3.59-34.28-.28-12.73-4.63-23.35-15.88-25.61-29.44-1.74-10.46-1.24-21.72,3.81-31.24,6.3-11.64,18.72-19.35,31.72-20.98Zm1.01,5.95c-13.3,1.64-26.05,10.87-29.83,24.04-2.63,10.12-2.33,21.46,2.82,30.76,5.42,9.55,15.74,15.6,26.41,17.34,14.39,2.56,30.59-2.6,39.23-14.79,5.91-8.37,7.02-19.27,5.4-29.18-1.26-8.23-5.96-15.78-12.63-20.74-8.78-6.87-20.54-8.92-31.4-7.43Z"/>
  <path class="cls-1" d="m485.08,373.04c9.92-4.24,21.17-6.32,31.79-3.68,5.64,1.36,10.72,4.47,14.77,8.59,12.28-8.38,28.1-12.1,42.64-8.28,8.44,2.13,15.45,9.49,16.6,18.19,2.04,13.21.89,26.6,1.23,39.9,4.26-.02,8.53-.02,12.8,0,.01,8,.01,15.99,0,23.99-14.61,0-29.22.01-43.82,0,0-15.6-.03-31.21.02-46.82.24-3.57-.51-8.36-4.53-9.5-6.35-1.33-12.61,1.22-18.33,3.68.01,9.55-.01,19.09,0,28.64,4.41,0,8.83-.01,13.24.01-.01,8,.07,15.99-.04,23.99-14.62.02-29.24,0-43.86.01-.04-16.23.04-32.46-.03-48.69-.09-3.05-1.37-6.76-4.57-7.72-6.19-1.1-12.2,1.44-17.82,3.71,0,9.56-.01,19.13,0,28.69,4.27,0,8.55-.01,12.82.01.01,8,.02,16,0,24-18.89-.01-37.77.01-56.66-.01,0-8,0-15.99.01-23.99,4.38-.02,8.76-.01,13.15-.01.01-11.44.01-22.88,0-34.32-4.38-.02-8.77-.01-13.15-.01-.01-8-.03-16.01.01-24.01,14.61.02,29.23-.01,43.84.02-.03.9-.09,2.7-.11,3.61Zm-5.99,10.15c.06-2.59.08-5.18.08-7.76-10.64-.01-21.28-.02-31.92.01,0,4.02-.01,8.04.01,12.06,4.41,0,8.82,0,13.24.01,0,15.42.01,30.83-.01,46.25-4.41-.01-8.82-.01-13.23,0-.02,4.02-.02,8.05.01,12.09,14.9-.02,29.81-.01,44.72-.01.01-4.03.01-8.06,0-12.08-4.27-.01-8.55,0-12.82-.01,0-12.85-.02-25.69.01-38.54,6.23-3.03,12.78-5.92,19.81-6.17,3.3-.08,6.93.18,9.61,2.35,3.4,2.75,4.95,7.24,4.98,11.52.02,14.3-.01,28.61.01,42.92,10.63.01,21.27.01,31.9.01.01-4.03.01-8.06,0-12.08-4.42-.01-8.83,0-13.24-.01.01-12.8-.02-25.6.01-38.39,8.13-4.35,17.64-8.05,26.93-5.53,4.94,1.73,7.92,7.05,7.87,12.13.06,14.62,0,29.25.03,43.87,10.6.01,21.21.01,31.82,0,.01-4.02.01-8.05,0-12.07-4.28-.01-8.55,0-12.82-.01-.16-13.31.45-26.65-.49-39.95-.44-5.27-1.68-11.1-6.04-14.56-5.73-4.68-13.56-5.44-20.68-4.87-10.58.67-20.26,5.82-28.58,12.1-3.97-5.41-9.3-10.41-16.15-11.59-12.27-2.42-24.6,2.16-35.06,8.31Z"/>
  <path class="cls-1" d="m386.19,388.08c7.33-1.78,16.13.87,19.96,7.7,4.72,8.86,4.46,19.87.7,29.03-5.21,10.44-21.68,12.44-29.12,3.41-5.7-7.44-6.01-17.58-4.14-26.42,1.22-6.42,5.93-12.48,12.6-13.72Zm.16,6.29c-3.64,1.14-5.77,4.76-6.69,8.26-1.33,5.38-1.62,11.19.14,16.52,1.19,3.42,3.3,6.98,6.98,8.1,4.49,1.39,10.11.55,13.16-3.31,3.2-3.91,3.72-9.19,3.58-14.05-.05-4.62-.87-9.71-4.38-13.05-3.23-3.42-8.5-3.82-12.79-2.47Z"/>
</svg>