<svg width="172" height="65" viewBox="0 0 172 65" fill="none" xmlns="http://www.w3.org/2000/svg">
<g clip-path="url(#clip0_16278_66930)">
<path d="M63.3714 5.39754V9.87952L64.2886 9.88611L65.2025 9.896L65.2124 11.9953L65.219 14.0979H61.6393H58.0563L56.829 15.192C54.988 16.8332 53.7706 17.9438 53.0646 18.6293L52.8237 18.86L52.8402 29.8111L52.8534 40.7623L54.4833 42.2157L56.1131 43.6657V44.0085V44.3479L56.4694 44.3677C56.6641 44.3776 62.4674 44.394 69.3695 44.4039L81.9132 44.4171V45.0103V45.6035H88.3962H94.8792V39.8692V34.1349H88.3962H81.9132L81.9066 34.7512L81.8967 35.3708L81.1346 35.3807L80.3691 35.3872L80.3494 34.7874C80.3395 34.4546 80.323 32.3982 80.3131 30.2132C80.3032 28.0282 80.2867 25.5137 80.2768 24.6272L80.257 23.0091L79.7555 22.5642C79.4816 22.317 78.7822 21.704 78.2015 21.1998C76.9346 20.0991 76.1989 19.4367 76.2121 19.407C76.222 19.3839 76.4265 19.1961 77.0072 18.6688L77.3272 18.3755V14.1275V9.87952H78.449H79.5707V5.39754V0.915565H71.4711H63.3714V5.39754ZM77.8551 5.39754V8.16582H76.7334H75.6116L75.6083 12.8851V17.6076L75.3939 17.7889C74.8825 18.2173 73.7608 19.3839 73.7674 19.4762C73.774 19.5652 75.2256 20.8966 77.314 22.7257L78.5414 23.7967L78.5612 24.7557C78.5711 25.283 78.5909 28.2622 78.6073 31.3732C78.6205 34.4843 78.6436 37.0416 78.6601 37.0581C78.6733 37.0713 79.7984 37.0878 81.1577 37.0943L83.6288 37.1075V36.4781V35.8486H88.3962H93.1636V39.8692V43.8898H88.3962H83.6288V43.2966V42.7034H70.6331H57.6373L56.2747 41.4873C55.5225 40.8216 54.8264 40.1922 54.7274 40.0966L54.5459 39.9187L54.5624 29.7452L54.5789 19.5718L54.9583 19.2192C55.5918 18.6293 56.6014 17.7164 57.6967 16.7409L58.736 15.8148L62.8369 15.8115H66.9346V11.9887V8.16582H66.0108H65.087V5.39754V2.62926H71.4711H77.8551V5.39754Z" fill="white"/>
<path d="M62.2561 29.2482L62.266 37.0851L66.3439 37.095L70.4217 37.1016L70.4415 36.337C70.4547 35.9152 70.4646 32.3856 70.4646 28.4902V21.4146H66.3571H62.2495L62.2561 29.2482ZM68.716 29.2581V35.3879L66.3505 35.3813L63.9816 35.3714L63.9717 29.2911C63.9684 25.9461 63.9717 23.191 63.9816 23.1679C63.9915 23.1382 64.4996 23.1283 66.3571 23.1283H68.716V29.2581Z" fill="white"/>
<path d="M109.848 1.46667C109.835 1.47656 109.825 3.48686 109.825 5.93217V10.3746H110.831H111.837V14.2963V18.2181H110.666H109.498L109.488 17.7138L109.478 17.2129L103.912 17.203L98.3433 17.1964V22.7495V28.3025H103.899H109.452L109.472 28.029C109.485 27.8807 109.495 27.6434 109.495 27.5017V27.2479H110.666H111.837V32.1583V37.0687H110.831H109.825V41.3859V45.7031H118.155H126.486V41.3859V37.0687H125.298H124.11V32.1583V27.2479L125.72 27.2545C127.119 27.2644 127.327 27.271 127.33 27.3138C127.334 27.3402 127.337 27.5742 127.34 27.8312L127.344 28.3025H132.903H138.462V22.7495V17.1964H132.903H127.347L127.337 17.6974L127.327 18.2016L125.72 18.2115L124.11 18.2181V14.2963V10.3746H125.265H126.42L126.413 5.91569L126.403 1.46008L118.135 1.4502C113.589 1.4469 109.858 1.45349 109.848 1.46667ZM124.684 3.21003C124.711 3.27924 124.711 7.30972 124.681 8.06111L124.661 8.6609H123.526H122.395V14.2963V19.9318H125.727H129.059V19.4209V18.9101H132.903H136.747V22.7495V26.5888H132.903H129.059V26.0615V25.5342H125.727H122.395V32.1583V38.7824H123.583H124.77V41.3859V43.9894L118.165 43.9828L111.557 43.973V41.3859V38.7989L112.556 38.789L113.553 38.7824V32.1583V25.5342H110.649H107.746V26.0615V26.5888H103.902H100.059V22.7495V18.9101H103.902H107.746V19.4209V19.9318H110.649H113.553V14.2963V8.6609L112.556 8.65431L111.557 8.64442L111.547 5.91899L111.54 3.19025L117.667 3.18037C121.039 3.17707 123.992 3.17048 124.229 3.16389C124.602 3.1573 124.668 3.16389 124.684 3.21003Z" fill="white"/>
<path d="M149.604 1.46765L148.221 1.47754L148.037 1.62254C147.542 2.00483 146.964 2.54201 145.513 3.97229L143.936 5.53109H143.52H143.104L143.124 11.3873C143.137 14.6104 143.157 19.679 143.17 22.6516L143.19 28.0563L144.279 29.0285C144.876 29.5624 146.034 30.5972 146.855 31.3255L148.343 32.6536H152.758H157.169V34.7463V36.839H156.245H155.321V41.3375V45.8359H163.405H171.488V41.3375V36.839H170.382H169.277L169.271 32.5811L169.261 28.3233L166.648 25.99L164.031 23.6567H159.155H154.276L154.252 21.1323C154.239 19.7416 154.239 16.8184 154.252 14.6335L154.276 10.6623L156.453 10.6821C157.651 10.6953 159.165 10.7051 159.815 10.7051H160.996V12.6627V14.6236L161.138 14.6401C161.214 14.6499 161.389 14.6664 161.524 14.6796C161.88 14.7093 168.571 14.729 170.023 14.706L171.247 14.6829L171.534 14.4324L171.818 14.182V10.5074V6.83284L171.28 6.35498C170.986 6.09134 170.161 5.34324 169.445 4.69072C167.766 3.16158 166.727 2.22234 166.239 1.79062L165.846 1.44458L158.413 1.45117C154.328 1.45776 150.363 1.46436 149.604 1.46765ZM165.853 3.77126C166.222 4.10081 167.093 4.89175 167.793 5.53109C168.492 6.17043 169.297 6.90205 169.581 7.1591L170.102 7.62378V10.2998V12.9791H166.407H162.712V11.005V9.03099L161.55 9.01122C160.91 9.00133 159.145 8.98485 157.631 8.97496C156.116 8.96508 154.345 8.9486 153.698 8.93871L152.517 8.91565V17.1447V25.3704H157.938L163.355 25.3737L164.724 26.5931C166.76 28.409 167.492 29.0714 167.519 29.1274C167.545 29.1801 167.548 29.9282 167.558 35.1649L167.562 38.5527H168.614C169.195 38.5527 169.69 38.5626 169.719 38.5725C169.765 38.5923 169.772 38.8658 169.772 41.3573V44.1222H163.405H157.037L157.044 41.3441L157.053 38.5692L157.971 38.5593L158.885 38.5527V34.7463V30.94H154.685C152.372 30.94 150.145 30.9301 149.732 30.9169L148.984 30.8971L148.215 30.2182C147.792 29.8458 146.875 29.0285 146.176 28.4024L144.906 27.2687L144.886 21.3828C144.873 18.1465 144.853 13.5855 144.843 11.2489L144.823 6.99762L145.048 6.81636C145.173 6.7175 145.905 6.01225 146.677 5.25097C147.449 4.48969 148.254 3.70864 148.469 3.52079L148.858 3.17476H157.02H165.183L165.853 3.77126Z" fill="white"/>
<path d="M6.55825 2.2408C4.75686 2.41546 2.92908 3.62164 1.90631 5.31557C1.56319 5.8824 1.29595 6.54811 1.14089 7.21711L1.0716 7.5236L1.0617 14.6256C1.05511 18.5308 1.04521 21.8527 1.03531 22.0076C1.02541 22.1625 0.985822 22.4591 0.94953 22.6668C0.913238 22.8744 0.883545 23.1578 0.883545 23.2929C0.886844 24.0146 1.46091 24.7693 2.22634 25.0593C2.4012 25.1252 2.54307 25.1516 2.87959 25.1714C3.11714 25.1846 5.83902 25.1912 8.93371 25.1846C14.4402 25.1747 14.5655 25.1714 14.8163 25.1088C15.6807 24.8847 16.4527 24.1201 16.6869 23.2501C16.7958 22.848 16.8189 22.3734 16.8189 20.2445C16.8189 18.923 16.8321 18.2243 16.8552 18.1386C16.908 17.9442 17.0367 17.8354 17.2676 17.7893C17.4194 17.7564 18.6467 17.7465 23.038 17.7498C28.3762 17.7564 28.6269 17.7564 28.9041 17.819C29.0657 17.8519 29.2076 17.8915 29.2241 17.9079C29.2901 17.9772 29.3264 20.2017 29.3198 23.6719C29.3165 25.6657 29.3231 27.4124 29.3396 27.5508L29.3627 27.8078H25.0406C20.2237 27.8078 20.4712 27.798 19.7453 28.0385C18.8611 28.3351 17.9143 28.9481 17.1983 29.6896C16.3273 30.5926 15.7862 31.6142 15.5421 32.8105C15.486 33.0808 15.4827 33.5092 15.4827 40.0015C15.4827 46.7244 15.486 46.9123 15.5454 47.1001C15.6675 47.4626 15.9248 47.7889 16.2712 48.0163C16.677 48.2766 16.1096 48.2569 22.5992 48.2668C25.7896 48.27 28.7028 48.2635 29.0723 48.247L29.7454 48.2206L29.9928 48.0987C30.4382 47.8779 30.7879 47.4264 30.8737 46.9584C30.8935 46.8497 30.9067 45.8181 30.9067 44.3154C30.9067 42.6544 30.9166 41.8206 30.943 41.758C30.9793 41.6558 31.1179 41.5009 31.2201 41.4416C31.2696 41.412 32.7543 41.3988 37.0598 41.3856L42.8335 41.3691L43.0974 41.2801C43.4471 41.1615 44.1466 40.8122 44.5161 40.5716C46.0799 39.55 47.2182 37.9285 47.6174 36.1621C47.6801 35.882 47.7098 35.6216 47.7296 35.2262C47.7659 34.4847 47.7692 15.8944 47.7362 11.4124C47.7098 7.91907 47.7065 7.81031 47.6405 7.51371C47.2512 5.8132 46.1789 4.31042 44.6481 3.31186C43.7738 2.74502 42.7312 2.35614 41.8272 2.27046C41.395 2.22762 6.98715 2.20125 6.55825 2.2408ZM41.9526 3.90506C43.8431 4.34337 45.3541 5.67808 45.9348 7.42144C46.1723 8.13658 46.1525 6.79858 46.1558 21.7407C46.1558 34.2738 46.1525 35.2295 46.0997 35.536C45.8556 36.9695 44.9549 38.3306 43.6814 39.1875C43.424 39.3621 42.8005 39.6851 42.586 39.7576C42.5398 39.7741 39.8972 39.7938 36.7134 39.8037L30.9232 39.8202L30.7021 39.896C30.4415 39.985 30.0423 40.242 29.8674 40.4332C29.6893 40.6309 29.5045 40.9308 29.4154 41.1648L29.3396 41.3691L29.3231 44.0056L29.3066 46.642L27.558 46.6684C25.7071 46.6948 17.1191 46.6717 17.0862 46.6387C17.0763 46.6289 17.0598 43.7288 17.0532 40.1926C17.0433 33.4762 17.0433 33.4235 17.1851 32.8698C17.3237 32.3261 17.6272 31.7098 17.9934 31.2286C18.2211 30.932 18.7424 30.4278 19.0558 30.2037C19.4154 29.9434 19.9268 29.683 20.3656 29.5314L20.7285 29.4062L25.199 29.3897L29.6695 29.3732L29.8839 29.3007C30.2765 29.1656 30.5273 28.9745 30.7417 28.6482C30.9265 28.3648 30.9826 28.1209 30.9562 27.6826C30.9463 27.4882 30.9265 25.1714 30.9133 22.5349C30.8935 18.7154 30.8803 17.7135 30.844 17.608C30.6824 17.1137 30.2897 16.6523 29.8311 16.4151C29.3297 16.1547 29.8839 16.1745 23.0776 16.1745C18.7325 16.1745 16.9377 16.1844 16.8123 16.2107C16.2415 16.3327 15.6873 16.7644 15.4101 17.3082C15.2419 17.6377 15.2353 17.7333 15.2353 20.0962C15.2353 21.3024 15.2188 22.3965 15.2023 22.5283C15.1594 22.8579 15.0439 23.0853 14.8064 23.3028C14.4665 23.6192 15.0571 23.5928 8.63348 23.5829L2.97857 23.573L2.74762 23.4906C2.48038 23.3951 2.49688 23.4643 2.58266 22.8183C2.62555 22.4756 2.63215 21.5463 2.63215 15.2221C2.63215 7.31268 2.61895 7.79054 2.8301 7.1479C3.30519 5.68797 4.54241 4.4719 6.06336 3.96109L6.3438 3.86552L8.68627 3.84904C9.97627 3.83915 17.9176 3.83256 26.3372 3.83256H41.6458L41.9526 3.90506Z" fill="white"/>
<path d="M39.7321 8.49544C39.0524 8.53499 38.7489 8.69976 38.4256 9.1974C38 9.85651 38.0791 10.7463 38.6103 11.2769C38.805 11.4746 39.0326 11.5966 39.3527 11.6823C39.5407 11.7284 39.7585 11.7383 41.0683 11.7383C42.3847 11.7383 42.5958 11.7317 42.7839 11.679C43.292 11.5438 43.7209 11.1352 43.8759 10.6343C43.9518 10.3904 43.9584 9.94219 43.8891 9.68514C43.744 9.14137 43.3217 8.67999 42.8499 8.55146C42.6354 8.49214 40.448 8.4526 39.7321 8.49544Z" fill="white"/>
<path d="M39.5672 14.3455C39.1911 14.4148 39.0789 14.4543 38.8678 14.5894C38.4257 14.8728 38.165 15.3902 38.165 15.9736C38.165 16.4613 38.3036 16.804 38.6269 17.1336C38.8282 17.3379 39.0492 17.4632 39.3429 17.5455C39.5078 17.5917 39.7421 17.5983 41.042 17.595C41.8701 17.5917 42.6256 17.5752 42.718 17.5587C43.688 17.3742 44.2456 16.1548 43.7837 15.2189C43.5659 14.774 43.203 14.5004 42.6586 14.3587C42.4343 14.3027 42.2924 14.2961 41.1047 14.2994C40.1908 14.3027 39.7289 14.3159 39.5672 14.3455Z" fill="white"/>
<path d="M39.5013 20.1959C38.9767 20.2783 38.561 20.5947 38.3136 21.0989C37.9078 21.9228 38.2641 22.9147 39.112 23.3201L39.3693 23.442L40.3756 23.4618C41.5402 23.4849 42.5894 23.4486 42.8434 23.3794C43.7408 23.1323 44.2093 21.9722 43.7804 21.0528C43.6715 20.8155 43.3185 20.4661 43.081 20.3541C42.7148 20.1794 42.5168 20.1629 41.0288 20.1662C40.2799 20.1695 39.5937 20.1827 39.5013 20.1959Z" fill="white"/>
<path d="M39.3891 26.0805C38.9338 26.1761 38.5807 26.4397 38.3729 26.8385C38.2277 27.1087 38.165 27.3724 38.165 27.6921C38.165 28.1798 38.3135 28.5489 38.6335 28.8488C39.1251 29.3102 39.4287 29.3629 41.3818 29.3234C42.3914 29.3036 42.6652 29.2871 42.7939 29.2476C43.5164 29.007 43.9387 28.4303 43.9387 27.6855C43.9387 27.2076 43.787 26.8055 43.4999 26.5122C43.2789 26.2881 43.0776 26.1728 42.7609 26.0937C42.5299 26.0344 42.398 26.0278 41.0552 26.0311C39.94 26.0311 39.5507 26.0443 39.3891 26.0805Z" fill="white"/>
<path d="M39.4186 31.9476C39.0524 32.0102 38.8842 32.0959 38.6433 32.3364C38.3002 32.6825 38.1616 33.0351 38.1616 33.5624C38.1616 34.3566 38.6631 34.9762 39.4153 35.1113C39.6958 35.1608 42.0943 35.1739 42.576 35.1278C43.1996 35.0685 43.6978 34.6269 43.8891 33.9579C43.9683 33.6909 43.9452 33.1702 43.8462 32.9165C43.6945 32.5342 43.3084 32.1453 42.9158 31.9838C42.7377 31.9113 42.708 31.9113 41.2167 31.9047C40.029 31.9014 39.6397 31.9113 39.4186 31.9476Z" fill="white"/>
<path d="M22.2463 51.1641C20.4614 51.2596 18.9273 51.9319 17.69 53.1645C16.0569 54.7925 15.3806 57.0862 15.8491 59.4129C16.1526 60.919 17.0005 62.3328 18.1882 63.3017C18.9767 63.9443 20.0094 64.4551 20.9596 64.666C21.5667 64.8044 21.8372 64.8275 23.0414 64.8407C24.8923 64.8671 25.6247 64.7946 26.4792 64.5012C28.6303 63.7696 30.3789 61.901 30.92 59.7589C31.0586 59.1987 31.1081 58.8559 31.1279 58.2726C31.1741 56.9577 30.8903 55.7713 30.2602 54.631C29.2539 52.8053 27.3766 51.5233 25.2651 51.2201C24.9385 51.174 22.8039 51.1311 22.2463 51.1641ZM24.8362 52.7756C26.4792 52.9074 28.1486 54.0642 28.9603 55.6263C29.729 57.1093 29.7455 58.7472 29.0098 60.2533C28.2476 61.8154 26.8949 62.8502 25.1991 63.1731C24.4601 63.3115 22.1209 63.2918 21.4347 63.1402C19.4155 62.6887 17.7824 61.0013 17.3733 58.9416C17.2776 58.4506 17.271 57.574 17.3601 57.106C17.7791 54.9375 19.5112 53.2007 21.6194 52.8316C21.7844 52.8053 22.0879 52.769 22.2958 52.7558C22.6818 52.7295 24.4469 52.7426 24.8362 52.7756Z" fill="white"/>
<path d="M40.9133 51.5037C39.422 51.6915 38.0034 52.41 37.1192 53.4184C36.1789 54.4961 35.7434 55.8242 35.7995 57.4489C35.8391 58.6023 36.0634 59.4921 36.5055 60.2534C37.3006 61.6244 38.7358 62.6328 40.3557 62.9558C42.2033 63.3249 43.9882 63.1799 45.2881 62.557C46.1723 62.1352 46.8981 61.4926 47.4821 60.6159C47.69 60.3062 47.9605 59.8052 48.0595 59.5581L48.1255 59.3867L47.7065 59.1988C47.4755 59.0967 46.72 58.7441 46.0238 58.4178C45.3277 58.0915 44.7569 57.8279 44.7503 57.8345C44.747 57.8411 44.6547 57.9795 44.5491 58.1443C44.3214 58.487 43.876 58.9649 43.5923 59.1659C42.8104 59.7228 41.9427 59.8151 41.1937 59.4229C40.4052 59.011 39.9664 57.8839 40.1611 56.7733C40.2996 55.9758 40.6296 55.4814 41.2102 55.1947C41.8503 54.8816 42.6025 54.8849 43.2723 55.2145C43.6781 55.4122 44.0575 55.8176 44.3676 56.3745L44.5161 56.6448H46.0931H47.6669V54.1401V51.6355H46.0832H44.4996V51.9156C44.4996 52.0705 44.493 52.1957 44.4831 52.1957C44.4732 52.1957 44.3346 52.1298 44.173 52.0507C43.7837 51.853 43.2855 51.6849 42.8038 51.5828C42.4805 51.5169 42.2858 51.4971 41.7777 51.4872C41.4346 51.4806 41.0453 51.4872 40.9133 51.5037ZM42.5761 52.3902C43.4009 52.5714 43.9717 52.8582 44.9153 53.5667C45.1165 53.7183 45.2914 53.8435 45.3013 53.8435C45.3145 53.8435 45.3244 53.5305 45.3244 53.1515V52.4594L46.0766 52.466L46.8256 52.4759L46.8355 54.1467L46.8421 55.8209H45.9579H45.0704L44.912 55.5638C44.5095 54.9311 43.8364 54.4565 43.0215 54.2324C42.8071 54.1731 42.6751 54.1599 42.1736 54.1599C41.494 54.1566 41.3422 54.1863 40.8539 54.417C40.1215 54.763 39.6431 55.3694 39.4155 56.2328C39.2109 57.0007 39.2769 58.1541 39.5639 58.8198C39.907 59.6207 40.5933 60.2073 41.4214 60.405C41.9295 60.527 42.7048 60.494 43.1931 60.3325C43.8067 60.1249 44.4963 59.6306 44.9879 59.0407L45.0902 58.9187L46.0073 59.3471C46.5121 59.5844 46.9377 59.792 46.9542 59.8085C46.9872 59.8415 46.8388 60.0952 46.6144 60.3852C46.2218 60.8961 45.6213 61.4201 45.0902 61.7134C44.2653 62.1649 43.3943 62.3362 42.0252 62.3033C41.2366 62.2868 40.9595 62.2505 40.326 62.0825C38.4785 61.5947 37.205 60.349 36.7662 58.599C36.6408 58.0915 36.6012 57.7883 36.6012 57.2545C36.6012 55.5144 37.3402 54.0841 38.7061 53.1811C39.3957 52.7263 40.1281 52.4594 41.0849 52.3144C41.329 52.2781 42.2792 52.3276 42.5761 52.3902Z" fill="white"/>
<path d="M53.9354 51.4901C53.5791 51.5231 52.9324 51.6516 52.5959 51.7538C51.6325 52.0438 50.8011 52.5447 50.1083 53.2467C49.2637 54.1035 48.8084 55.0658 48.6401 56.3379C48.5477 57.0465 48.5906 58.1736 48.7391 58.8854C49.0855 60.5596 50.3788 62.0228 52.1109 62.7116C52.4475 62.8434 53.1304 63.018 53.6055 63.0906C54.1334 63.1729 55.199 63.1729 55.7005 63.0906C57.1819 62.85 58.2937 62.2963 59.2142 61.3373C60.1941 60.3124 60.6989 58.9513 60.6989 57.3299C60.6989 56.2753 60.4976 55.313 60.1149 54.5517C59.3165 52.9633 57.7691 51.8856 55.816 51.5495C55.5125 51.5 54.2785 51.4605 53.9354 51.4901ZM55.6675 52.3734C56.8454 52.581 57.7361 53.0259 58.5214 53.8102C59.3957 54.677 59.8048 55.6755 59.8642 57.0893C59.9137 58.2658 59.6431 59.3171 59.0723 60.1707C58.8381 60.5233 58.1782 61.1659 57.7988 61.4164C55.8952 62.6621 53.3383 62.6522 51.4511 61.39C50.425 60.7046 49.7916 59.7554 49.5078 58.4735C49.4451 58.1867 49.4352 58.045 49.4352 57.3694C49.4319 56.7004 49.4418 56.5423 49.5078 56.2094C49.7025 55.1812 50.0357 54.5418 50.7516 53.8234C51.5897 52.983 52.5926 52.4986 53.8331 52.3404C54.2587 52.2877 55.2782 52.3041 55.6675 52.3734Z" fill="white"/>
<path d="M53.9587 54.1927C53.0778 54.3839 52.441 55.0792 52.2233 56.0943C52.0649 56.8259 52.0484 57.7289 52.1804 58.3418C52.309 58.935 52.6027 59.5315 52.9293 59.8545C53.731 60.6553 55.1398 60.7147 56.1659 59.9863C56.5189 59.7359 56.7531 59.4096 56.9082 58.9482C57.3173 57.7322 57.2645 56.4073 56.7696 55.3989C56.6311 55.1089 56.5618 55.01 56.3572 54.809C56.156 54.6146 56.0471 54.5388 55.7732 54.4069C55.5885 54.318 55.3311 54.2191 55.1992 54.1927C54.9022 54.1268 54.2655 54.1268 53.9587 54.1927ZM54.9616 54.9968C55.4037 55.0825 55.8194 55.3923 56.0372 55.8043C56.4661 56.6183 56.4463 58.1408 55.9976 58.9054C55.6281 59.5315 54.8033 59.815 54.0345 59.5744C53.3285 59.3536 52.8666 58.3451 52.9227 57.1554C52.9854 55.8899 53.4011 55.1814 54.1797 55.0133C54.4272 54.9606 54.7274 54.954 54.9616 54.9968Z" fill="white"/>
<path d="M70.0027 51.4906C69.9566 51.4972 69.7883 51.5203 69.6233 51.5401C69.2142 51.5895 68.4092 51.7971 67.9473 51.9751L67.5613 52.1201V51.8795V51.6356H64.5425H61.5237V53.2834V54.9312H62.431H63.3383V57.2875V59.6439H62.431H61.5237V61.2917V62.9395H65.4333H69.3429V61.2917V59.6439H68.4521H67.5613V57.6731V55.7057L67.8351 55.6002C68.8117 55.2146 69.4749 55.0927 69.9731 55.1982C70.1974 55.2476 70.3921 55.4223 70.5174 55.6991L70.6131 55.9034L70.623 59.4198L70.6296 62.9395H73.6484H76.6672V61.2917V59.6439H75.7599H74.8526L74.8592 57.6764L74.8691 55.7057L75.3013 55.5343C76.0041 55.2542 76.3043 55.185 76.8487 55.1817C77.337 55.1784 77.4426 55.2015 77.6438 55.3498C77.7593 55.4354 77.8978 55.6727 77.9539 55.8869C77.9836 55.9957 77.9935 56.9184 77.9902 59.4857L77.9836 62.9395H81.0057H84.0245V61.2917V59.6439H83.1535H82.2858L82.2628 59.4231C82.2496 59.3011 82.2496 58.6124 82.2628 57.8972C82.2924 56.1374 82.2199 54.7203 82.0582 53.9656C81.946 53.4317 81.6491 52.8978 81.2334 52.4826C80.6791 51.9289 80.0424 51.6554 79.0097 51.517C78.5115 51.4511 77.5514 51.4709 77.0631 51.5533C76.0965 51.718 75.1166 52.0838 74.2852 52.5947L73.9618 52.7924L73.754 52.6144C73.0842 52.0278 72.4244 51.7081 71.5534 51.55C71.2862 51.5005 70.1875 51.4577 70.0027 51.4906ZM71.5699 52.3936C71.9625 52.476 72.4178 52.6803 72.7378 52.9176C72.9622 53.0857 73.4208 53.5405 73.6451 53.8173L73.7705 53.9755L73.975 53.8272C74.6349 53.3427 75.5356 52.8583 76.2086 52.6276C77.723 52.1102 79.3594 52.1959 80.3294 52.8385C80.9233 53.234 81.2334 53.8272 81.3489 54.7829C81.4181 55.3662 81.461 57.0503 81.4412 58.5596C81.4313 59.3868 81.4313 60.1547 81.4412 60.2667L81.461 60.4678H82.3287H83.1997V61.2917V62.1156H81.0057H78.8117V58.9848C78.8117 56.8426 78.8018 55.8012 78.7754 55.6826C78.7194 55.4058 78.5313 55.0531 78.33 54.8356C77.9638 54.4402 77.5283 54.3116 76.6804 54.3479C75.9744 54.3776 75.3541 54.5522 74.4699 54.9774L74.0278 55.1916V57.828V60.4678H74.9351H75.8424V61.2917V62.1156H73.6484H71.4544V59.0078C71.4544 56.0188 71.4511 55.8869 71.3884 55.6431C71.3092 55.33 71.1608 55.0433 70.9628 54.8258C70.6593 54.4863 70.369 54.371 69.7619 54.3479C68.9206 54.3116 68.208 54.4896 67.073 55.0169L66.7365 55.1718V57.8181V60.4678L67.6207 60.4744L68.5016 60.4843L68.5115 61.2983L68.5181 62.1156H65.4333H62.3485V61.2917V60.4678H63.2558H64.1631V57.2875V54.1073H63.2558H62.3485V53.2834V52.4595H64.5425H66.7365V52.9868V53.5108L67.2083 53.2669C68.1915 52.7561 69.0262 52.4694 69.9038 52.3409C70.3426 52.2783 71.141 52.3046 71.5699 52.3936Z" fill="white"/>
</g>
<defs>
<clipPath id="clip0_16278_66930">
<rect width="171" height="64" fill="white" transform="translate(0.850586 0.882812)"/>
</clipPath>
</defs>
</svg>
