<?xml version="1.0" standalone="no"?>
<!DOCTYPE svg PUBLIC "-//W3C//DTD SVG 20010904//EN"
 "http://www.w3.org/TR/2001/REC-SVG-20010904/DTD/svg10.dtd">
<svg version="1.0" xmlns="http://www.w3.org/2000/svg"
 width="5183.000000pt" height="1942.000000pt" viewBox="0 0 5183.000000 1942.000000"
 preserveAspectRatio="xMidYMid meet">

<g transform="translate(0.000000,1942.000000) scale(0.100000,-0.100000)"
fill="#000000" stroke="none">
<path d="M18950 18050 l0 -1360 278 -2 277 -3 3 -637 2 -638 -1085 0 -1086 0
-372 -332 c-558 -498 -927 -835 -1141 -1043 l-73 -70 5 -3323 4 -3323 494
-441 494 -440 0 -104 0 -103 108 -6 c59 -3 1818 -8 3910 -11 l3802 -4 0 -180
0 -180 1965 0 1965 0 0 1740 0 1740 -1965 0 -1965 0 -2 -187 -3 -188 -231 -3
-232 -2 -6 182 c-3 101 -8 725 -11 1388 -3 663 -8 1426 -11 1695 l-6 491 -152
135 c-83 75 -295 261 -471 414 -384 334 -607 535 -603 544 3 7 65 64 241 224
l97 89 0 1289 0 1289 340 0 340 0 0 1360 0 1360 -2455 0 -2455 0 0 -1360z
m4390 0 l0 -840 -340 0 -340 0 -1 -1432 0 -1433 -65 -55 c-155 -130 -495 -484
-493 -512 2 -27 442 -431 1075 -986 l372 -325 6 -291 c3 -160 9 -1064 14
-2008 4 -944 11 -1720 16 -1725 4 -4 345 -9 757 -11 l749 -4 0 191 0 191 1445
0 1445 0 0 -1220 0 -1220 -1445 0 -1445 0 0 180 0 180 -3939 0 -3939 0 -413
369 c-228 202 -439 393 -469 422 l-55 54 5 3087 5 3087 115 107 c192 179 498
456 830 752 l315 281 1243 1 1242 0 0 1160 0 1160 -280 0 -280 0 0 840 0 840
1935 0 1935 0 0 -840z"/>
<path d="M18612 10813 l3 -2378 1236 -3 1236 -2 6 232 c4 128 7 1199 7 2381
l0 2147 -1245 0 -1245 0 2 -2377z m1958 -3 l0 -1860 -717 2 -718 3 -3 1845
c-1 1015 0 1851 3 1858 3 9 157 12 720 12 l715 0 0 -1860z"/>
<path d="M33037 19243 c-4 -3 -7 -613 -7 -1355 l0 -1348 305 0 305 0 0 -1190
0 -1190 -355 0 -354 0 -3 153 -3 152 -1687 3 -1688 2 0 -1685 0 -1685 1684 0
1683 0 6 83 c4 45 7 117 7 160 l0 77 355 0 355 0 0 -1490 0 -1490 -305 0 -305
0 0 -1310 0 -1310 2525 0 2525 0 0 1310 0 1310 -360 0 -360 0 0 1490 0 1490
488 -2 c424 -3 487 -5 488 -18 1 -8 2 -79 3 -157 l1 -143 1685 0 1685 0 0
1685 0 1685 -1685 0 -1684 0 -3 -152 -3 -153 -487 -3 -488 -2 0 1190 0 1190
350 0 350 0 -2 1353 -3 1352 -2506 3 c-1378 1 -2509 -1 -2512 -5z m4497 -529
c8 -21 8 -1244 -1 -1472 l-6 -182 -344 0 -343 0 0 -1710 0 -1710 1010 0 1010
0 0 155 0 155 1165 0 1165 0 0 -1165 0 -1165 -1165 0 -1165 0 0 160 0 160
-1010 0 -1010 0 0 -2010 0 -2010 360 0 360 0 0 -790 0 -790 -2002 2 -2003 3 0
785 0 785 303 3 302 2 0 2010 0 2010 -880 0 -880 0 0 -160 0 -160 -1165 0
-1165 0 0 1165 0 1165 1165 0 1165 0 0 -155 0 -155 880 0 880 0 0 1710 0 1710
-302 2 -303 3 -3 827 -2 828 1857 3 c1022 1 1917 3 1989 5 113 2 133 0 138
-14z"/>
<path d="M45087 19243 l-419 -3 -56 -44 c-150 -116 -325 -279 -765 -713 l-478
-473 -126 0 -126 0 6 -1777 c4 -978 10 -2516 14 -3418 l6 -1640 330 -295 c181
-162 532 -476 781 -697 l451 -403 1338 0 1337 0 0 -635 0 -635 -280 0 -280 0
0 -1365 0 -1365 2450 0 2450 0 0 1365 0 1365 -335 0 -335 0 -2 1292 -3 1292
-792 708 -793 708 -1478 0 -1479 0 -7 766 c-4 422 -4 1309 0 1972 l7 1205 660
-6 c363 -4 822 -7 1019 -7 l358 0 0 -594 0 -595 43 -5 c23 -3 76 -8 117 -12
108 -9 2136 -15 2576 -8 l371 7 87 76 86 76 0 1115 0 1115 -163 145 c-89 80
-339 307 -556 505 -509 464 -824 749 -972 880 l-119 105 -2253 -2 c-1238 -2
-2440 -4 -2670 -5z m4925 -699 c112 -100 376 -340 588 -534 212 -194 456 -416
542 -494 l158 -141 0 -812 0 -813 -1120 0 -1120 0 0 599 0 599 -352 6 c-194 3
-729 8 -1188 11 -459 3 -996 8 -1192 11 l-358 7 0 -2497 0 -2496 1643 0 1642
-1 415 -370 c617 -551 839 -752 847 -769 8 -16 9 -243 12 -1832 l1 -1028 319
0 c176 0 326 -3 335 -6 14 -6 16 -89 16 -845 l0 -839 -1930 0 -1930 0 2 843 3
842 278 3 277 2 0 1155 0 1155 -1273 0 c-701 0 -1376 3 -1501 7 l-227 6 -233
206 c-128 113 -406 361 -618 551 l-385 344 -6 1786 c-4 982 -10 2366 -13 3075
l-6 1290 68 55 c38 30 260 244 494 475 234 231 478 468 543 525 l118 105 2474
0 2474 0 203 -181z"/>
<path d="M1730 19008 c-546 -53 -1100 -419 -1410 -933 -104 -172 -185 -374
-232 -577 l-21 -93 -3 -2155 c-2 -1185 -5 -2193 -8 -2240 -3 -47 -15 -137 -26
-200 -11 -63 -20 -149 -20 -190 1 -219 175 -448 407 -536 53 -20 96 -28 198
-34 72 -4 897 -6 1835 -4 1669 3 1707 4 1783 23 262 68 496 300 567 564 33
122 40 266 40 912 0 401 4 613 11 639 16 59 55 92 125 106 46 10 418 13 1749
12 1618 -2 1694 -2 1778 -21 49 -10 92 -22 97 -27 20 -21 31 -696 29 -1749 -1
-605 1 -1135 6 -1177 l7 -78 -1310 0 c-1460 0 -1385 3 -1605 -70 -268 -90
-555 -276 -772 -501 -264 -274 -428 -584 -502 -947 -17 -82 -18 -212 -18
-2182 0 -2040 1 -2097 19 -2154 37 -110 115 -209 220 -278 123 -79 -49 -73
1918 -76 967 -1 1850 1 1962 6 l204 8 75 37 c135 67 241 204 267 346 6 33 10
346 10 802 0 504 3 757 11 776 11 31 53 78 84 96 15 9 465 13 1770 17 l1750 5
80 27 c106 36 318 142 430 215 474 310 819 802 940 1338 19 85 28 164 34 284
11 225 12 5866 2 7226 -8 1060 -9 1093 -29 1183 -118 516 -443 972 -907 1275
-265 172 -581 290 -855 316 -131 13 -10560 21 -10690 9z m10728 -505 c573
-133 1031 -538 1207 -1067 72 -217 66 189 67 -4345 0 -3803 -1 -4093 -17
-4186 -74 -435 -347 -848 -733 -1108 -78 -53 -267 -151 -332 -173 -14 -5 -815
-11 -1780 -14 l-1755 -5 -67 -23 c-79 -27 -200 -105 -253 -163 -54 -60 -110
-151 -137 -222 l-23 -62 -5 -800 -5 -800 -530 -8 c-561 -8 -3164 -1 -3174 9
-3 3 -8 883 -10 1956 -3 2038 -3 2054 40 2222 42 165 134 352 245 498 69 90
227 243 322 311 109 79 264 158 397 204 l110 38 1355 5 1355 5 65 22 c119 41
195 99 260 198 56 86 73 160 65 293 -3 59 -9 762 -13 1562 -6 1159 -10 1463
-21 1495 -49 150 -168 290 -307 362 -152 79 16 73 -2047 73 -1317 0 -1861 -3
-1899 -11 -173 -37 -341 -168 -425 -333 -51 -100 -53 -129 -53 -846 0 -366 -5
-698 -10 -738 -13 -100 -48 -169 -120 -235 -103 -96 76 -88 -1871 -85 l-1714
3 -70 25 c-81 29 -76 8 -50 204 13 104 15 386 15 2305 0 2400 -4 2255 60 2450
144 443 519 812 980 967 l85 29 710 5 c391 3 2798 5 5350 5 l4640 0 93 -22z"/>
<path d="M11785 17110 c-206 -12 -298 -62 -396 -213 -129 -200 -105 -470 56
-631 59 -60 128 -97 225 -123 57 -14 123 -17 520 -17 399 0 463 2 520 18 154
41 284 165 331 317 23 74 25 210 4 288 -44 165 -172 305 -315 344 -65 18 -728
30 -945 17z"/>
<path d="M11735 15335 c-114 -21 -148 -33 -212 -74 -134 -86 -213 -243 -213
-420 0 -148 42 -252 140 -352 61 -62 128 -100 217 -125 50 -14 121 -16 515
-15 251 1 480 6 508 11 294 56 463 426 323 710 -66 135 -176 218 -341 261 -68
17 -111 19 -471 18 -277 -1 -417 -5 -466 -14z"/>
<path d="M11715 13560 c-159 -25 -285 -121 -360 -274 -123 -250 -15 -551 242
-674 l78 -37 305 -6 c353 -7 671 4 748 25 272 75 414 427 284 706 -33 72 -140
178 -212 212 -111 53 -171 58 -622 57 -227 -1 -435 -5 -463 -9z"/>
<path d="M11681 11774 c-138 -29 -245 -109 -308 -230 -44 -82 -63 -162 -63
-259 0 -148 45 -260 142 -351 149 -140 241 -156 833 -144 306 6 389 11 428 23
219 73 347 248 347 474 0 145 -46 267 -133 356 -67 68 -128 103 -224 127 -70
18 -110 20 -517 19 -338 0 -456 -4 -505 -15z"/>
<path d="M11690 9994 c-111 -19 -162 -45 -235 -118 -104 -105 -146 -212 -146
-372 0 -241 152 -429 380 -470 85 -15 812 -19 958 -5 189 18 340 152 398 355
24 81 17 239 -13 316 -46 116 -163 234 -282 283 -54 22 -63 22 -515 24 -360 1
-478 -2 -545 -13z"/>
<path d="M6485 4163 c-541 -29 -1006 -233 -1381 -607 -495 -494 -700 -1190
-558 -1896 92 -457 349 -886 709 -1180 239 -195 552 -350 840 -414 184 -42
266 -49 631 -53 561 -8 783 14 1042 103 652 222 1182 789 1346 1439 42 170 57
274 63 451 14 399 -72 759 -263 1105 -305 554 -874 943 -1514 1035 -99 14
-746 27 -915 17z m785 -489 c498 -40 1004 -391 1250 -865 233 -450 238 -947
15 -1404 -231 -474 -641 -788 -1155 -886 -224 -42 -933 -36 -1141 10 -612 137
-1107 649 -1231 1274 -29 149 -31 415 -4 557 127 658 652 1185 1291 1297 50 8
142 19 205 23 117 8 652 4 770 -6z"/>
<path d="M12143 4060 c-452 -57 -882 -275 -1150 -581 -285 -327 -417 -730
-400 -1223 12 -350 80 -620 214 -851 241 -416 676 -722 1167 -820 560 -112
1101 -68 1495 121 268 128 488 323 665 589 63 94 145 246 175 321 l20 52 -127
57 c-70 31 -299 138 -510 237 -211 99 -384 179 -386 177 -1 -2 -29 -44 -61
-94 -69 -104 -204 -249 -290 -310 -237 -169 -500 -197 -727 -78 -239 125 -372
467 -313 804 42 242 142 392 318 479 194 95 422 94 625 -6 123 -60 238 -183
332 -352 l45 -82 478 0 477 0 0 760 0 760 -480 0 -480 0 0 -85 c0 -47 -2 -85
-5 -85 -3 0 -45 20 -94 44 -118 60 -269 111 -415 142 -98 20 -157 26 -311 29
-104 2 -222 0 -262 -5z m504 -269 c250 -55 423 -142 709 -357 61 -46 114 -84
117 -84 4 0 7 95 7 210 l0 210 228 -2 227 -3 3 -507 2 -508 -268 0 -269 0 -48
78 c-122 192 -326 336 -573 404 -65 18 -105 22 -257 22 -206 1 -252 -8 -400
-78 -222 -105 -367 -289 -436 -551 -62 -233 -42 -583 45 -785 104 -243 312
-421 563 -481 154 -37 389 -27 537 22 186 63 395 213 544 392 l31 37 278 -130
c153 -72 282 -135 287 -140 10 -10 -35 -87 -103 -175 -119 -155 -301 -314
-462 -403 -250 -137 -514 -189 -929 -179 -239 5 -323 16 -515 67 -560 148
-946 526 -1079 1057 -38 154 -50 246 -50 408 0 528 224 962 638 1236 209 138
431 219 721 263 74 11 362 -4 452 -23z"/>
<path d="M16090 4064 c-108 -10 -304 -49 -406 -80 -292 -88 -544 -240 -754
-453 -256 -260 -394 -552 -445 -938 -28 -215 -15 -557 30 -773 105 -508 497
-952 1022 -1161 102 -40 309 -93 453 -115 160 -25 483 -25 635 0 449 73 786
241 1065 532 297 311 450 724 450 1216 0 320 -61 612 -177 843 -242 482 -711
809 -1303 911 -92 15 -466 27 -570 18z m525 -268 c357 -63 627 -198 865 -436
265 -263 389 -566 407 -995 15 -357 -67 -676 -240 -935 -71 -107 -271 -302
-386 -378 -577 -378 -1352 -375 -1924 8 -311 208 -503 496 -589 885 -19 87
-22 130 -22 335 -1 203 2 251 22 352 59 312 160 506 377 724 254 255 558 402
934 450 129 16 438 11 556 -10z"/>
<path d="M16097 3244 c-267 -58 -460 -269 -526 -577 -48 -222 -53 -496 -13
-682 39 -180 128 -361 227 -459 243 -243 670 -261 981 -40 107 76 178 175 225
315 124 369 108 771 -42 1077 -42 88 -63 118 -125 179 -61 59 -94 82 -177 122
-56 27 -134 57 -174 65 -90 20 -283 20 -376 0z m304 -244 c134 -26 260 -120
326 -245 130 -247 124 -709 -12 -941 -112 -190 -362 -276 -595 -203 -214 67
-354 373 -337 734 19 384 145 599 381 650 75 16 166 18 237 5z"/>
<path d="M20960 4064 c-14 -2 -65 -9 -115 -15 -124 -15 -368 -78 -508 -132
l-117 -44 0 73 0 74 -915 0 -915 0 0 -500 0 -500 275 0 275 0 0 -715 0 -715
-275 0 -275 0 0 -500 0 -500 1185 0 1185 0 0 500 0 500 -270 0 -270 0 0 598 0
597 83 32 c296 117 497 154 648 122 68 -15 127 -68 165 -152 l29 -62 3 -1067
2 -1068 915 0 915 0 0 500 0 500 -275 0 -275 0 2 597 3 598 131 52 c213 85
304 106 469 107 148 1 180 -6 241 -51 35 -26 77 -98 94 -163 9 -33 12 -313 11
-1092 l-2 -1048 916 0 915 0 0 500 0 500 -264 0 -263 0 -7 67 c-4 37 -4 246 0
463 9 534 -13 964 -62 1193 -34 162 -124 324 -250 450 -168 168 -361 251 -674
293 -151 20 -442 14 -590 -11 -293 -50 -590 -161 -842 -316 l-98 -60 -63 54
c-203 178 -403 275 -667 323 -81 15 -414 28 -470 18z m475 -274 c119 -25 257
-87 354 -159 68 -51 207 -189 275 -273 l38 -48 62 45 c200 147 473 294 677
364 459 157 955 131 1249 -64 180 -120 274 -300 309 -590 21 -177 34 -688 28
-1146 -3 -251 -3 -484 0 -518 l6 -61 263 0 264 0 0 -250 0 -250 -665 0 -665 0
0 950 c0 650 -3 966 -11 1002 -17 84 -74 191 -135 257 -111 120 -243 159 -500
148 -214 -9 -402 -62 -670 -191 l-134 -65 0 -800 0 -801 275 0 275 0 0 -250 0
-250 -665 0 -665 0 0 943 c0 907 -1 947 -20 1021 -24 95 -69 182 -129 248 -92
103 -180 138 -364 145 -255 11 -471 -43 -815 -203 l-102 -47 0 -803 0 -804
268 -2 267 -3 3 -247 2 -248 -935 0 -935 0 0 250 0 250 275 0 275 0 0 965 0
965 -275 0 -275 0 0 250 0 250 665 0 665 0 0 -160 0 -159 143 74 c298 155 551
242 817 281 133 19 375 11 505 -16z"/>
</g>
</svg>
